<?xml version="1.0" encoding="iso-8859-1"?>
<!-- Uploaded to: SVG Repo, www.svgrepo.com, Generator: SVG Repo Mixer Tools -->
<!DOCTYPE svg PUBLIC "-//W3C//DTD SVG 1.1//EN" "http://www.w3.org/Graphics/SVG/1.1/DTD/svg11.dtd">
<svg fill="#000000" version="1.1" id="Capa_1" xmlns="http://www.w3.org/2000/svg" xmlns:xlink="http://www.w3.org/1999/xlink" 
	 width="800px" height="800px" viewBox="0 0 494.094 494.094"
	 xml:space="preserve">
<g>
	<path d="M346.15,25.266C346.15,11.313,334.839,0,320.884,0h-72.157h-3.359H173.21c-13.954,0-25.266,11.313-25.266,25.266
		c0,0-6.602,440.283,45.416,440.283c0,0,15.213,28.545,55.368,28.545c40.154,0,52.008-28.545,52.008-28.545
		C352.751,465.549,346.15,25.266,346.15,25.266z M224.466,90.331h44.054v32.601h-44.054V90.331L224.466,90.331z M224.466,138.706
		h44.054v32.601h-44.054V138.706L224.466,138.706z M224.466,187.081h44.054v32.601h-44.054V187.081L224.466,187.081z
		 M166.683,122.932V90.331h44.054v32.601H166.683z M210.737,138.706v32.601h-44.054v-32.601H210.737z M183.011,42.132
		c9.681,0,17.528,7.847,17.528,17.527c0,9.68-7.847,17.528-17.528,17.528c-9.68,0-17.527-7.848-17.527-17.528
		C165.484,49.979,173.331,42.132,183.011,42.132z M166.683,219.682v-32.601h44.054v32.601H166.683z M289.035,351.557l-25.113-25.115
		c-1.381,3.487-3.81,6.44-6.898,8.479l24.584,24.585c-9.25,8.049-21.334,12.925-34.56,12.925c-13.225,0-25.31-4.876-34.56-12.925
		l24.584-24.585c-3.089-2.038-5.517-4.991-6.897-8.479l-25.115,25.115c-6.701-8.836-10.679-19.851-10.679-31.794
		c0-11.944,3.979-22.958,10.679-31.794l25.115,25.114c1.381-3.485,3.808-6.44,6.897-8.478l-24.584-24.584
		c9.25-8.053,21.335-12.927,34.56-12.927s25.31,4.874,34.56,12.927l-24.584,24.584c3.089,2.036,5.518,4.991,6.898,8.477
		l25.113-25.113c6.701,8.836,10.68,19.85,10.68,31.794C299.714,331.706,295.735,342.721,289.035,351.557z M327.412,219.682h-44.055
		v-32.601h44.055V219.682z M327.412,171.307h-44.055v-32.601h44.055V171.307z M327.412,122.932h-44.055V90.331h44.055V122.932z"/>
</g>
</svg>